<svg width="350" height="330" viewBox="0 0 350 330" fill="none" xmlns="http://www.w3.org/2000/svg" style="background: #5f458c;">
  <defs>
    <clipPath id="window">
      <path d="M275,225.43H257.87a17.6,17.6,0,0,1-17.52-17.58V170a17.6,17.6,0,0,1,17.52-17.58H275A17.6,17.6,0,0,1,292.51,170v37.83A17.61,17.61,0,0,1,275,225.43Z"/>
    </clipPath>
  </defs>
  <g id="airshipScene">
    <g id="windows" >
      <animateTransform attributeName="transform"
        type="skewX"
        values="0; -2; 0; 2; 0"
        dur="2s"
        repeatCount="indefinite"
        additive="sum"
      />
      <animateTransform attributeName="transform"
        type="translate"
        values="0,0; 5,-1.5; 0,0; -5,-1.5; 0,0"
        dur="2s"
        repeatCount="indefinite"
        additive="sum"
      />
      <g>
        <animate attributeType="CSS" 
          attributeName="opacity"
          to="0"
          begin="rightCloudAnimation.end - 0.5s"
          dur="0.5s"
          fill="freeze"
          />
        <path d="M175.44 249.28H223.8C226.863 249.278 229.831 248.216 232.201 246.275C234.57 244.334 236.195 241.633 236.8 238.63L240.54 220.31H172.36V246.2C172.363 247.016 172.688 247.798 173.265 248.375C173.842 248.952 174.624 249.277 175.44 249.28V249.28Z" stroke="white" stroke-width="2" stroke-linecap="round" stroke-linejoin="round"/>
        <path d="M235.79 241.69H226.57C224.371 241.682 222.265 240.803 220.713 239.245C219.161 237.688 218.29 235.579 218.29 233.38V220.31" stroke="white" stroke-width="2" stroke-miterlimit="10" stroke-linecap="round"/>
        <path d="M185.64 231.88H183.59C182.678 231.885 181.806 232.251 181.163 232.898C180.521 233.544 180.16 234.418 180.16 235.33V238.25C180.16 239.162 180.521 240.036 181.163 240.682C181.806 241.329 182.678 241.695 183.59 241.7H185.64C186.552 241.695 187.424 241.329 188.067 240.682C188.709 240.036 189.07 239.162 189.07 238.25V235.33C189.07 234.418 188.709 233.544 188.067 232.898C187.424 232.251 186.552 231.885 185.64 231.88V231.88Z" stroke="white" stroke-width="2" stroke-linecap="round" stroke-linejoin="round"/>
      </g>
      <path d="M204.25 231.88H202.2C201.288 231.885 200.416 232.251 199.773 232.898C199.131 233.544 198.77 234.418 198.77 235.33V238.25C198.77 239.162 199.131 240.036 199.773 240.682C200.416 241.329 201.288 241.695 202.2 241.7H204.25C205.162 241.695 206.034 241.329 206.677 240.682C207.319 240.036 207.68 239.162 207.68 238.25V235.33C207.681 234.878 207.594 234.431 207.422 234.013C207.25 233.595 206.998 233.215 206.68 232.895C206.361 232.574 205.983 232.32 205.566 232.146C205.149 231.972 204.702 231.881 204.25 231.88V231.88Z" stroke="white" stroke-width="2" stroke-linecap="round" stroke-linejoin="round">
        <animate attributeType="CSS" 
          id="windowAnimation"
          attributeName="opacity"
          to="0"
          begin="mountainsAnimation.end - 0.2s"
          dur="0.1s"
          fill="freeze"
          />
      </path>
    </g>
    <g id="notWindows">
      <animate attributeType="CSS" 
        attributeName="opacity"
        to="0"
        begin="rightCloudAnimation.end - 0.6s"
        dur="0.5s"
        fill="freeze"
        />
      <g id="airshipBody">
        <path d="M205 227.08C248.38 227.08 279.86 211.53 279.86 190.08C279.86 168.63 248.38 153.08 205 153.08C177.06 153.08 149.64 166.61 131.54 177.95C129.493 179.238 127.805 181.023 126.636 183.14C125.466 185.257 124.853 187.636 124.853 190.055C124.853 192.474 125.466 194.853 126.636 196.97C127.805 199.087 129.493 200.872 131.54 202.16C149.63 213.49 177.06 227.03 205 227.03" fill="#068E4D"/>
        <path d="M205 227.08C248.38 227.08 279.86 211.53 279.86 190.08C279.86 168.63 248.38 153.08 205 153.08C177.06 153.08 149.64 166.61 131.54 177.95C129.493 179.238 127.805 181.023 126.636 183.14C125.466 185.257 124.853 187.636 124.853 190.055C124.853 192.474 125.466 194.853 126.636 196.97C127.805 199.087 129.493 200.872 131.54 202.16C149.63 213.54 177.06 227.08 205 227.08Z" stroke="white" stroke-width="2"/>
        <path d="M205 179.09C176.77 179.09 148.93 181.85 132.19 186.09C128.24 187.09 126.19 188.75 126.11 190.43C126.028 188.159 126.546 185.908 127.612 183.901C128.678 181.894 130.253 180.204 132.18 179C148.92 168.5 176.76 154.32 204.99 154.32C249.8 154.32 278.63 170.32 278.63 190.07C278.63 190.19 278.63 190.31 278.63 190.44C278.26 182.49 249.53 179.07 205 179.07" fill="#36E69A"/>
        <path d="M132.18 195.12C148.92 199.39 176.76 205.12 204.99 205.12C249.13 205.12 277.74 198.8 278.59 190.94C277.73 210.28 249.14 225.8 204.99 225.8C176.76 225.8 148.92 211.61 132.18 201.12C130.44 200.025 128.988 198.53 127.944 196.759C126.9 194.988 126.295 192.993 126.18 190.94C126.44 192.55 128.44 194.12 132.18 195.08" fill="#068E4D"/>
        <g id="airshipCenter">
          <path d="M132.18 186.12C148.92 181.85 176.76 176.12 204.99 176.12C249.52 176.12 278.25 182.55 278.6 190.5C278.6 190.67 278.6 190.84 278.6 191.01C277.75 198.87 249.15 205.18 205 205.18C176.77 205.18 148.93 199.42 132.19 195.18C128.4 194.18 126.4 192.65 126.19 191.05V190.54C126.32 188.85 128.34 187.18 132.29 186.17" fill="#25B774">
            <animate attributeName="d" values="M132.18 186.12C148.92 181.85 176.76 176.12 204.99 176.12C249.52 176.12 278.25 182.55 278.6 190.5C278.6 190.67 278.6 190.84 278.6 191.01C277.75 198.87 249.15 205.18 205 205.18C176.77 205.18 148.93 199.42 132.19 195.18C128.4 194.18 126.4 192.65 126.19 191.05V190.54C126.32 188.85 128.34 187.18 132.29 186.17;
            M132.18 186.12C148.92 181.85 176.76 179.12 204.99 179.12C249.52 179.12 278.25 182.55 278.6 190.5C278.6 190.67 278.6 190.84 278.6 191.01C277.75 198.87 249.15 208.18 205 208.18C176.77 208.18 148.93 199.42 132.19 195.18C128.4 194.18 126.4 192.65 126.19 191.05V190.54C126.32 188.85 128.34 187.18 132.29 186.17;
            M132.18 186.12C148.92 181.85 176.76 176.12 204.99 176.12C249.52 176.12 278.25 182.55 278.6 190.5C278.6 190.67 278.6 190.84 278.6 191.01C277.75 198.87 249.15 205.18 205 205.18C176.77 205.18 148.93 199.42 132.19 195.18C128.4 194.18 126.4 192.65 126.19 191.05V190.54C126.32 188.85 128.34 187.18 132.29 186.17;
            M132.18 186.12C148.92 181.85 176.76 173.12 204.99 173.12C249.52 173.12 278.25 182.55 278.6 190.5C278.6 190.67 278.6 190.84 278.6 191.01C277.75 198.87 249.15 202.18 205 202.18C176.77 202.18 148.93 199.42 132.19 195.18C128.4 194.18 126.4 192.65 126.19 191.05V190.54C126.32 188.85 128.34 187.18 132.29 186.17;
            M132.18 186.12C148.92 181.85 176.76 176.12 204.99 176.12C249.52 176.12 278.25 182.55 278.6 190.5C278.6 190.67 278.6 190.84 278.6 191.01C277.75 198.87 249.15 205.18 205 205.18C176.77 205.18 148.93 199.42 132.19 195.18C128.4 194.18 126.4 192.65 126.19 191.05V190.54C126.32 188.85 128.34 187.18 132.29 186.17;" dur="2s" repeatCount="indefinite">
            </animate>
          </path>
        </g>
      </g>
      <g id="paddles">
        <g id="paddleTopBack">
          <path d="M123.23 173.34H132.39C132.823 173.34 133.252 173.425 133.651 173.591C134.051 173.757 134.414 174.001 134.72 174.307C135.026 174.614 135.268 174.978 135.432 175.378C135.597 175.778 135.681 176.207 135.68 176.64V182.35C135.681 182.783 135.597 183.212 135.432 183.612C135.268 184.012 135.026 184.376 134.72 184.683C134.414 184.989 134.051 185.233 133.651 185.399C133.252 185.565 132.823 185.65 132.39 185.65H115.57C115.22 185.65 114.884 185.511 114.637 185.263C114.389 185.016 114.25 184.68 114.25 184.33V182.33C114.25 179.943 115.198 177.654 116.886 175.966C118.574 174.278 120.863 173.33 123.25 173.33" fill="#068E4D"/>
          <path d="M123.23 173.34H132.39C132.823 173.34 133.252 173.425 133.651 173.591C134.051 173.757 134.414 174.001 134.72 174.307C135.026 174.614 135.268 174.978 135.432 175.378C135.597 175.778 135.681 176.207 135.68 176.64V182.35C135.681 182.783 135.597 183.212 135.432 183.612C135.268 184.012 135.026 184.376 134.72 184.683C134.414 184.989 134.051 185.233 133.651 185.399C133.252 185.565 132.823 185.65 132.39 185.65H115.57C115.22 185.65 114.884 185.511 114.637 185.263C114.389 185.016 114.25 184.68 114.25 184.33V182.33C114.253 179.948 115.199 177.665 116.882 175.98C118.566 174.294 120.848 173.345 123.23 173.34V173.34Z" stroke="white" stroke-width="2" stroke-linecap="round" stroke-linejoin="round"/>
          <animateTransform attributeName="transform" 
            type="translate"
            values="0 0; 0 -2; 0 0; 0 2; 0 0"
            dur="2s"
            repeatCount="indefinite"
            additive="sum"/>
        </g>
        <g id="paddleTopFront">
          <path d="M123.23 173.34H132.39C132.823 173.34 133.252 173.425 133.651 173.591C134.051 173.757 134.414 174.001 134.72 174.307C135.026 174.614 135.268 174.978 135.432 175.378C135.597 175.778 135.681 176.207 135.68 176.64V182.35C135.681 182.783 135.597 183.212 135.432 183.612C135.268 184.012 135.026 184.376 134.72 184.683C134.414 184.989 134.051 185.233 133.651 185.399C133.252 185.565 132.823 185.65 132.39 185.65H115.57C115.22 185.65 114.884 185.511 114.637 185.263C114.389 185.016 114.25 184.68 114.25 184.33V182.33C114.25 179.943 115.198 177.654 116.886 175.966C118.574 174.278 120.863 173.33 123.25 173.33" fill="#068E4D"/>
          <path d="M123.23 173.34H132.39C132.823 173.34 133.252 173.425 133.651 173.591C134.051 173.757 134.414 174.001 134.72 174.307C135.026 174.614 135.268 174.978 135.432 175.378C135.597 175.778 135.681 176.207 135.68 176.64V182.35C135.681 182.783 135.597 183.212 135.432 183.612C135.268 184.012 135.026 184.376 134.72 184.683C134.414 184.989 134.051 185.233 133.651 185.399C133.252 185.565 132.823 185.65 132.39 185.65H115.57C115.22 185.65 114.884 185.511 114.637 185.263C114.389 185.016 114.25 184.68 114.25 184.33V182.33C114.253 179.948 115.199 177.665 116.882 175.98C118.566 174.294 120.848 173.345 123.23 173.34V173.34Z" stroke="white" stroke-width="2" stroke-linecap="round" stroke-linejoin="round"/>
          <animateTransform attributeName="transform" 
            type="translate"
            values="0 0; 0 2; 0 0; 0 -2; 0 0"
            dur="2s"
            repeatCount="indefinite"
            additive="sum"/>
        </g>
        <g id="paddleBottomBack">
          <path d="M123.23 207.39H132.39C132.823 207.39 133.252 207.305 133.651 207.139C134.051 206.973 134.414 206.729 134.72 206.423C135.026 206.116 135.268 205.752 135.432 205.352C135.597 204.952 135.681 204.523 135.68 204.09V198.38C135.681 197.947 135.597 197.518 135.432 197.118C135.268 196.718 135.026 196.354 134.72 196.047C134.414 195.741 134.051 195.497 133.651 195.331C133.252 195.165 132.823 195.08 132.39 195.08H115.57C115.22 195.08 114.884 195.219 114.637 195.467C114.389 195.714 114.25 196.05 114.25 196.4V198.4C114.25 200.787 115.198 203.076 116.886 204.764C118.574 206.452 120.863 207.4 123.25 207.4" fill="#068E4D"/>
          <path d="M123.23 207.39H132.39C132.823 207.39 133.252 207.305 133.651 207.139C134.051 206.973 134.414 206.729 134.72 206.423C135.026 206.116 135.268 205.752 135.432 205.352C135.597 204.952 135.681 204.523 135.68 204.09V198.38C135.681 197.947 135.597 197.518 135.432 197.118C135.268 196.718 135.026 196.354 134.72 196.047C134.414 195.741 134.051 195.497 133.651 195.331C133.252 195.165 132.823 195.08 132.39 195.08H115.57C115.22 195.08 114.884 195.219 114.637 195.467C114.389 195.714 114.25 196.05 114.25 196.4V198.4C114.253 200.782 115.199 203.065 116.882 204.75C118.566 206.436 120.848 207.385 123.23 207.39V207.39Z" stroke="white" stroke-width="2" stroke-linecap="round" stroke-linejoin="round"/>
          <animateTransform attributeName="transform" 
            type="translate"
            values="0 0; 0 -2; 0 0; 0 2; 0 0"
            dur="2s"
            repeatCount="indefinite"
            additive="sum"/>
        </g>
        <g id="paddleBottomFront">
          <path d="M123.23 207.39H132.39C132.823 207.39 133.252 207.305 133.651 207.139C134.051 206.973 134.414 206.729 134.72 206.423C135.026 206.116 135.268 205.752 135.432 205.352C135.597 204.952 135.681 204.523 135.68 204.09V198.38C135.681 197.947 135.597 197.518 135.432 197.118C135.268 196.718 135.026 196.354 134.72 196.047C134.414 195.741 134.051 195.497 133.651 195.331C133.252 195.165 132.823 195.08 132.39 195.08H115.57C115.22 195.08 114.884 195.219 114.637 195.467C114.389 195.714 114.25 196.05 114.25 196.4V198.4C114.25 200.787 115.198 203.076 116.886 204.764C118.574 206.452 120.863 207.4 123.25 207.4" fill="#068E4D"/>
          <path d="M123.23 207.39H132.39C132.823 207.39 133.252 207.305 133.651 207.139C134.051 206.973 134.414 206.729 134.72 206.423C135.026 206.116 135.268 205.752 135.432 205.352C135.597 204.952 135.681 204.523 135.68 204.09V198.38C135.681 197.947 135.597 197.518 135.432 197.118C135.268 196.718 135.026 196.354 134.72 196.047C134.414 195.741 134.051 195.497 133.651 195.331C133.252 195.165 132.823 195.08 132.39 195.08H115.57C115.22 195.08 114.884 195.219 114.637 195.467C114.389 195.714 114.25 196.05 114.25 196.4V198.4C114.253 200.782 115.199 203.065 116.882 204.75C118.566 206.436 120.848 207.385 123.23 207.39V207.39Z" stroke="white" stroke-width="2" stroke-linecap="round" stroke-linejoin="round"/>
          <animateTransform attributeName="transform" 
            type="translate"
            values="0 0; 0 2; 0 0; 0 -2; 0 0"
            dur="2s"
            repeatCount="indefinite"
            additive="sum"/>
        </g>
      </g>
      <g id="clouds">
        <animate attributeType="CSS" 
          attributeName="opacity"
          to="0"
          begin="rightCloudAnimation.end - 0.4s"
          dur="0.5s"
          fill="freeze"
          />
        <g id="cloudLeft" transform="translate(200 14.68)">
          <animateTransform attributeName="transform"
            id="leftCloudAnimation"
            type="translate"
            from="200"
            to="0"
            dur="2s"
            />
          <animate attributeType="CSS" 
            attributeName="opacity"
            values="0; 1; 0"
            dur="2s"
            fill="freeze"
            />
          <path d="M68.95 107.8H131.86" stroke="white" stroke-width="2" stroke-miterlimit="10" stroke-linecap="round">
            <animateTransform attributeName="transform"
              type="translate"
              from="-10"
              to="0"
              dur="1s"
              />
          </path>
          <path d="M41.77 97.54H77.06C77.06 94.2513 78.3664 91.0973 80.6919 88.7719C83.0173 86.4464 86.1713 85.14 89.46 85.14C92.7487 85.14 95.9027 86.4464 98.2281 88.7719C100.554 91.0973 101.86 94.2513 101.86 97.54H119.79" stroke="white" stroke-width="2" stroke-miterlimit="10" stroke-linecap="round"/>
        </g>
        <g id="cloudRight" transform="translate(100 0.05)" opacity="0">
          <animateTransform attributeName="transform"
            id="rightCloudAnimation"
            type="translate"
            values="100; 0; -100"
            dur="2s"
            begin="leftCloudAnimation.end - 0.5s"
            />
          <animate attributeType="CSS" 
            attributeName="opacity"
            values="0; 1; 0"
            dur="2s"
            fill="freeze"
            begin="leftCloudAnimation.end - 0.5s"
            />
          <path d="M258.96 93.19H298.74" stroke="white" stroke-width="2" stroke-miterlimit="10" stroke-linecap="round">
            <animateTransform attributeName="transform"
              type="translate"
              from="0"
              to="10"
              begin="leftCloudAnimation.end - 0.5s"
              dur="1s"
              fill="freeze"
              />
          </path>
          <path d="M278.75 82.91H251.39C251.39 79.6213 250.084 76.4673 247.758 74.1419C245.433 71.8164 242.279 70.51 238.99 70.51C235.701 70.51 232.547 71.8164 230.222 74.1419C227.896 76.4673 226.59 79.6213 226.59 82.91H208.65" stroke="white" stroke-width="2" stroke-miterlimit="10" stroke-linecap="round"/>
          <path d="M287.01 82.91H309.21" stroke="white" stroke-width="2" stroke-miterlimit="10" stroke-linecap="round"/>
        </g>
      </g>
      <g id="lines">
        <path d="M106.25 179.49H84.05" stroke="white" stroke-width="2" stroke-miterlimit="10" stroke-linecap="round">
          <animate attributeName="d"
            id="linesAnimation"
            type="translate" 
            values="M106.25 179.49H84.05;
            M106.25 179.49H80.05;
            M106.25 179.49H84.05"
            dur="0.3s" 
            repeatCount="indefinite"/>
        </path>
        <path d="M106.25 201.23H84.05" stroke="white" stroke-width="2" stroke-miterlimit="10" stroke-linecap="round">
          <animate attributeName="d"
            type="translate" 
            values="M106.25 201.23H84.05;
            M106.25 201.23H80.05;
            M106.25 201.23H84.05"
            dur="0.3s" 
            begin="linesAnimation.begin + 0.1s"
            repeatCount="indefinite"/>
        </path>
        <path d="M106.25 190.98H68.77" stroke="white" stroke-width="2" stroke-miterlimit="10" stroke-linecap="round">
          <animate attributeName="d"
            type="translate" 
            values="M106.25 190.98H68.77;
            M106.25 190.98H64.77;
            M106.25 190.98H68.77"
            dur="0.3s" 
            begin="linesAnimation.begin + 0.2s"
            repeatCount="indefinite"/>
        </path>
      </g>
    </g>
    <g id="mountains">
      <animate attributeType="CSS" 
        attributeName="opacity"
        to="0"
        begin="mountainsAnimation.end + 0.2s"
        dur="0.1s"
        fill="freeze"
        />
      <path d="M289.94 327.88H244.88L212.8 296.58C212.459 296.292 212.027 296.134 211.58 296.134C211.133 296.134 210.701 296.292 210.36 296.58L200.16 306.81C199.847 307.08 199.448 307.229 199.035 307.229C198.622 307.229 198.223 307.08 197.91 306.81L178.91 286.64C178.477 286.273 177.928 286.072 177.36 286.072C176.792 286.072 176.243 286.273 175.81 286.64L149.39 312.28C149.078 312.552 148.679 312.702 148.265 312.702C147.851 312.702 147.452 312.552 147.14 312.28L144.51 309.36C144.195 309.071 143.783 308.911 143.355 308.911C142.927 308.911 142.515 309.071 142.2 309.36L124.63 329H80.78" stroke="white" stroke-width="2" stroke-miterlimit="10" stroke-linecap="round">
        <animate attributeName="d"
          id="mountainsAnimation"
          values="M 289.94 327.88 L 244.88 327.88 L 212.8 296.58 C 212.459 296.292 212.027 296.134 211.58 296.134 C 211.133 296.134 210.701 296.292 210.36 296.58 L 200.16 306.81 C 199.847 307.08 199.448 307.229 199.035 307.229 C 198.622 307.229 198.223 307.08 197.91 306.81 C 191.577 300.087 185.243 293.363 178.91 286.64 C 178.477 286.273 177.928 286.072 177.36 286.072 C 176.792 286.072 176.243 286.273 175.81 286.64 C 167.003 295.187 158.197 303.733 149.39 312.28 C 149.078 312.552 148.679 312.702 148.265 312.702 C 147.851 312.702 147.452 312.552 147.14 312.28 C 146.263 311.307 145.387 310.333 144.51 309.36 C 144.195 309.071 143.783 308.911 143.355 308.911 C 142.927 308.911 142.515 309.071 142.2 309.36 C 136.343 315.907 130.487 322.453 124.63 329 L 80.78 329;
          M 289.94 328 L 271.982 328 L 254.024 328 C 248.038 328 242.052 328 236.066 328 C 230.08 328 224.094 328 218.108 328 L 200.15 328 C 199.29 328 198.59 328 197.9 328 C 191.567 328 185.233 328 178.9 328 C 178.525 328 178.198 328 177.905 328 C 177.612 328 177.353 328 177.114 328 C 176.874 328 176.655 328 176.44 328 C 176.226 328 176.018 328 175.8 328 C 165.033 328 154.267 328 143.5 328 C 143.282 328 143.085 328 142.904 328 C 142.722 328 142.557 328 142.403 328 C 142.249 328 142.106 328 141.97 328 C 141.834 328 141.704 328 141.575 328 C 141.447 328 141.32 328 141.19 328 L 80.78 328"
          dur="0.5s"
          begin="rightCloudAnimation.end - 0.6s"
          fill="freeze"/>
      </path>
    </g>
  </g>
  <g id="seatScene">
    <g>
      <g id="skis" transform="translate(-400 0)" style="opacity: 0;">
        <animate attributeType="CSS" 
          attributeName="opacity"
          from="0"
          to="1"
          begin="palmAnimation.begin + 0.1s"
          dur="1s"
          fill="freeze"
          />
        <animateTransform attributeName="transform"
          type="translate"
          values="-400 0; 0 0"
          begin="palmAnimation.begin + 0.1s"
          dur="0.3s"
          fill="freeze"
          />
        <path d="M91.14,327.79a2.2,2.2,0,0,1-2-2.36l13.66-193.17c1.1-15.49-4.8-21.92-8.75-24.47a1.35,1.35,0,0,1,.53-2.45C103,104,122.18,104,120,134.19L106.43,326.67a2.2,2.2,0,0,1-2.35,2Z" fill="#fff"/>
        <path d="M124.5,328.17a2.2,2.2,0,0,1-2.17-2.23l2.24-193.63c0.19-15.53-6.07-21.61-10.16-23.91a1.35,1.35,0,0,1,.39-2.47c8.36-1.9,27.49-3,27.15,27.28l-2.25,192.93a2.2,2.2,0,0,1-2.22,2.18Z" fill="#fff"/>
      </g>
      <g id="seat" transform="translate(-400 0)" style="opacity: 0;">
        <animate attributeType="CSS" 
          attributeName="opacity"
          from="0"
          to="1"
          begin="mountainsAnimation.end + 0.1s"
          dur="0.6s"
          fill="freeze"
          />
        <animateTransform attributeName="transform"
          id="seatAnimation"
          type="translate"
          values="-400 0; 0 0"
          begin="mountainsAnimation.end + 0.1s"
          dur="0.3s"
          fill="freeze"
          />
        <path d="M257.5,259.82H196.76V245.63h55.09a9.92,9.92,0,0,1,9.9,9.93,4.26,4.26,0,0,1-4.25,4.25" fill="#a67ee5"/>
        <path d="M257.5,259.82H196.76V245.63h55.09a9.92,9.92,0,0,1,9.9,9.93A4.26,4.26,0,0,1,257.5,259.82Z" fill="none" stroke="#fff" stroke-miterlimit="10" stroke-width="2"/>
        <polygon points="185.47 328.31 171.5 328.31 165.19 286.72 179.16 286.72 185.47 328.31" fill="#a67ee5"/>
        <polygon points="185.47 328.31 171.5 328.31 165.19 286.72 179.16 286.72 185.47 328.31" fill="none" stroke="#fff" stroke-miterlimit="10" stroke-width="2"/>
        <polygon points="235.03 328.31 221.06 328.31 214.76 286.72 228.72 286.72 235.03 328.31" fill="#a67ee5"/>
        <polygon points="235.03 328.31 221.06 328.31 214.76 286.72 228.72 286.72 235.03 328.31" fill="none" stroke="#fff" stroke-miterlimit="10" stroke-width="2"/>
        <path d="M281.33,272.45H225.44a5.59,5.59,0,0,1-5.53-4.77l-10.86-72.24a17.71,17.71,0,0,0-12.49-31.31H141.48L141.16,267l15.77,23.35,47.19,8.39a12.3,12.3,0,0,0,4.22.75h73a13.53,13.53,0,0,0,0-27.06" fill="#a67ee5"/>
        <path d="M281.33,272.45H225.44a5.59,5.59,0,0,1-5.53-4.77l-10.86-72.24a17.71,17.71,0,0,0-12.49-31.31H141.48L141.16,267l15.77,23.35,47.19,8.39a12.3,12.3,0,0,0,4.22.75h73A13.53,13.53,0,0,0,281.33,272.45Z" fill="none" stroke="#fff" stroke-miterlimit="10" stroke-width="2"/>
        <path d="M162.42,267.69l-10.86-72.24a17.71,17.71,0,1,0-29-13.61,18,18,0,0,0,.79,5.25L138.65,289a12.36,12.36,0,0,0,12.21,10.54h73a13.53,13.53,0,0,0,0-27.05H167.95a5.62,5.62,0,0,1-5.53-4.78" fill="#a67ee5"/>
        <path d="M162.42,267.69l-10.86-72.24a17.71,17.71,0,1,0-29-13.61,18,18,0,0,0,.79,5.25L138.65,289a12.36,12.36,0,0,0,12.21,10.54h73a13.53,13.53,0,0,0,0-27.05H167.95A5.62,5.62,0,0,1,162.42,267.69Z" fill="none" stroke="#fff" stroke-miterlimit="10" stroke-width="2"/>
        <path d="M206.26,259.82h-72l-2.13-14.19H200.6a9.92,9.92,0,0,1,9.9,9.93,4.26,4.26,0,0,1-4.25,4.25" fill="#a67ee5"/>
        <path d="M206.26,259.82h-72l-2.13-14.19H200.6a9.92,9.92,0,0,1,9.9,9.93A4.26,4.26,0,0,1,206.26,259.82Z" fill="none" stroke="#fff" stroke-miterlimit="10" stroke-width="2"/>
        <line x1="151.57" y1="195.44" x2="209.05" y2="195.44" fill="none" stroke="#fff" stroke-linecap="round" stroke-miterlimit="10" stroke-width="2"/>
      </g>
      <g id="palm" transform="translate(-400 0)" style="opacity: 0;">
        <animate attributeType="CSS" 
          attributeName="opacity"
          from="0"
          to="1"
          begin="seatAnimation.begin + 0.1s"
          dur="1s"
          fill="freeze"
          />
        <animateTransform attributeName="transform"
          id="palmAnimation"
          type="translate"
          values="-400 0; 0 0"
          begin="seatAnimation.begin + 0.1s"
          dur="0.3s"
          fill="freeze"
          />
        <animateTransform attributeName="transform"
            type="rotate"
            values="0, 150, 327; 2.5, 150, 327; -2.5, 150, 327; 2, 150, 327; 0, 150, 327"
            dur="2s"
            begin="seatAnimation.begin + 0.1s"
            additive="sum"
            repeatCount="indefinite"
          />
        <path d="M79.18,194A131,131,0,0,1,94.77,220.9a255,255,0,0,1-20.08-23.55,259,259,0,0,1-17.07-25.88A131.72,131.72,0,0,1,79.18,194" fill="#36e69a"/>
        <path d="M80.94,214.39a127.19,127.19,0,0,1,22.8,20.49A242.09,242.09,0,0,1,77.9,219.17a235.86,235.86,0,0,1-23.42-18.7,119.82,119.82,0,0,1,26.46,13.92" fill="#36e69a"/>
        <path d="M93.66,205.48a258.38,258.38,0,0,0,10.08,29.39,125.63,125.63,0,0,0-4.5-30.52,135.9,135.9,0,0,0-12.06-29.44,260.33,260.33,0,0,0,6.47,30.57" fill="#36e69a"/>
        <path d="M107.32,213.52a250.14,250.14,0,0,0,2.06,30.67,119.93,119.93,0,0,0,3.76-30.05,131.24,131.24,0,0,0-4-31.36,238.1,238.1,0,0,0-1.87,30.74" fill="#25b774"/>
        <path d="M83.08,229.56a121.93,121.93,0,0,1,26.29,14.64A225.91,225.91,0,0,1,81.21,235a228.11,228.11,0,0,1-26.37-12.69,113.61,113.61,0,0,1,28.25,7.29" fill="#25b774"/>
        <path d="M88.06,243.83A118.11,118.11,0,0,1,115.62,255a211,211,0,0,1-28.78-5.6,220.87,220.87,0,0,1-27.42-9.33,114,114,0,0,1,28.65,3.73" fill="#25b774"/>
        <path d="M118.71,224.79a238,238,0,0,0-3.1,30.25,117.11,117.11,0,0,0,8.82-28.54,127.44,127.44,0,0,0,1.42-31.19,213.92,213.92,0,0,0-7.15,29.48" fill="#25b774"/>
        <path d="M98.86,262a118.24,118.24,0,0,1,27.07,12.34,212.3,212.3,0,0,1-28.53-6.79,220.78,220.78,0,0,1-27-10.45A114.06,114.06,0,0,1,98.86,262" fill="#068e4d"/>
        <path d="M130.27,244.29a236.56,236.56,0,0,0-4.34,30.1,116.94,116.94,0,0,0,10-28.16,127.42,127.42,0,0,0,2.71-31.1,214.43,214.43,0,0,0-8.36,29.16" fill="#068e4d"/>
        <path d="M108.9,280.69a118.21,118.21,0,0,1,26.54,13.47,213.62,213.62,0,0,1-28.23-8,221.65,221.65,0,0,1-26.55-11.57,113.82,113.82,0,0,1,28.24,6.08" fill="#068e4d"/>
        <path d="M141,264.26a236.09,236.09,0,0,0-5.58,29.9,117.46,117.46,0,0,0,11.15-27.73,127.2,127.2,0,0,0,4-31A214.24,214.24,0,0,0,141,264.26" fill="#068e4d"/>
        <path d="M92.62,217.67A529.26,529.26,0,0,1,149.48,328" fill="none" stroke="#36e69a" stroke-linecap="round" stroke-linejoin="round" stroke-width="2"/>
      </g>
      <g style="opacity: 0;">
        <animate attributeType="CSS" 
          attributeName="opacity"
          from="0"
          to="1"
          begin="mountainsAnimation.end + 0.1s"
          dur="1s"
          fill="freeze"
          />
        <line x1="72.03" y1="329" x2="295.52" y2="329" fill="none" stroke="#fff" stroke-linecap="round" stroke-miterlimit="10" stroke-width="2"/>
      </g>
    </g>
    <g id="porthole" style="opacity: 0;">
      <animate attributeType="CSS" 
        id="portholeAnimation"
        attributeName="opacity"
        from="0"
        to="1"
        begin="windowAnimation.end - 0.3s"
        dur="0.5s"
        fill="freeze"
        />
      <g style="transform-origin: 50% 50%;">
        <animateTransform attributeName="transform"
          type="translate"
          values="-10 70; 0 0"
          keyTimes="0; 1"
          dur="0.5s"
          begin="windowAnimation.end - 0.3s"
          additive="sum" />
        <animateTransform attributeName="transform"
          type="scale"
          values="0.18 0.15; 1 1"
          keyTimes="0; 1"
          dur="0.5s"
          begin="windowAnimation.end - 0.3s"
          additive="sum" />
        <path d="M275,225.43H257.87a17.6,17.6,0,0,1-17.52-17.58V170a17.6,17.6,0,0,1,17.52-17.58H275A17.6,17.6,0,0,1,292.51,170v37.83A17.61,17.61,0,0,1,275,225.43Z" fill="none" stroke="#fff" stroke-width="2"/>
      </g>
      <g clip-path="url(#window)">
        <g transform="translate(220 160)">
          <g id="leftWindowCloud">
            <animateTransform attributeName="transform"
              id="leftWindowCloudAnimation"
              type="translate"
              values="220; 0; -300"
              dur="6s"
              begin="portholeAnimation.begin; rightWindowCloud.start - 0.5s"
              additive="sum"
              repeatCount="indefinite"
              calcMode="paced"
              />
            <line x1="28.18" y1="38.34" x2="91.09" y2="38.34" fill="none" stroke="#fff" stroke-linecap="round" stroke-miterlimit="10" stroke-width="2"/>
            <path d="M41.77,97.54H77.06a12.4,12.4,0,1,1,24.8,0h17.93" transform="translate(-40.77 -69.46)" fill="none" stroke="#fff" stroke-linecap="round" stroke-miterlimit="10" stroke-width="2"/>
          </g>
          <g id="rightWindowCloud">
            <animateTransform attributeName="transform"
              id="rightWindowCloudAnimation"
              type="translate"
              values="220; 0; -300"
              dur="6s"
              begin="leftWindowCloudAnimation.begin + 0.5s"
              additive="sum"
              repeatCount="indefinite"
              calcMode="paced"
              />
            <line x1="218.19" y1="23.72" x2="257.97" y2="23.72" fill="none" stroke="#fff" stroke-linecap="round" stroke-miterlimit="10" stroke-width="2"/>
            <path d="M278.75,82.91H251.39a12.4,12.4,0,1,0-24.8,0H208.65" transform="translate(-40.77 -69.46)" fill="none" stroke="#fff" stroke-linecap="round" stroke-miterlimit="10" stroke-width="2"/>
            <line x1="246.24" y1="13.45" x2="268.43" y2="13.45" fill="none" stroke="#fff" stroke-linecap="round" stroke-miterlimit="10" stroke-width="2"/>
          </g>
        </g>
      </g>
    </g>
  </g>
</svg>

